<svg xmlns="http://www.w3.org/2000/svg" class="w-16 h-16 text-purple-400" viewBox="0 0 24 24" fill="none" stroke="currentColor" stroke-width="2" stroke-linecap="round" stroke-linejoin="round">
    <path d="M22 12a10 10 0 1 0-20 0"/>
    <path d="M6.34 19.31A10 10 0 0 1 4 12"/>
    <path d="M17.66 19.31A10 10 0 0 0 20 12"/>
    <path d="M12 2v4"/>
    <path d="m4.93 4.93 2.83 2.83"/>
    <path d="m16.24 7.76 2.83-2.83"/>
    <path d="M4 12h3.5"/>
    <path d="M16.5 12H20"/>
    <path d="M12 14a2 2 0 1 0 0-4 2 2 0 0 0 0 4Z"/>
    <path d="M12 18c-3 0-4-1.5-4-3.5 0-2 2-3 4-3s4 1 4 3.5c0 2-1 3.5-4 3.5Z"/>
</svg>
